<?xml version="1.0" encoding="UTF-8"?>
<svg width="87px" height="89px" viewBox="0 0 87 89" version="1.1" xmlns="http://www.w3.org/2000/svg" xmlns:xlink="http://www.w3.org/1999/xlink">
    <!-- Generator: Sketch 63.1 (92452) - https://sketch.com -->
    <title>Shape</title>
    <desc>Created with Sketch.</desc>
    <g id="Page-1" stroke="none" stroke-width="1" fill="none" fill-rule="evenodd">
        <g id="noun_Apple_2276085" fill="#FFFFFF" fill-rule="nonzero">
            <path d="M63.305643,0.9789679 C60.458596,1.0879205 57.458568,1.793456 54.502934,3.0412285 C50.144196,4.8813504 46.614367,7.678979 44.389184,10.915314 C44.229637,10.041824 44.057827,9.232012 43.88974,8.54059 C43.6773032,7.58543349 42.8056165,6.92440702 41.829531,6.978271 C41.2336753,7.01509776 40.685489,7.31671005 40.3350751,7.80052117 C39.9846611,8.28433229 39.8687371,8.89964686 40.019045,9.477981 C40.755535,12.507505 41.577204,19.140107 41.860747,23.882558 C39.696906,22.254967 37.243887,20.92279 34.556371,20.101747 C33.8620045,19.8384367 33.0790351,19.9822953 32.5233503,20.4752833 C31.9676656,20.9682713 31.7309335,21.7290633 31.9086633,22.4507193 C32.0863931,23.1723753 32.6492655,23.7358478 33.370191,23.913805 C36.92099,24.998583 40.233697,27.058579 42.485052,29.506905 C42.8632363,29.9164048 43.3950525,30.149248 43.9521753,30.149248 C44.5092875,30.149248 45.0411037,29.9164048 45.419288,29.506905 C49.401736,25.176041 56.41982,22.610521 63.243212,23.070153 C70.058866,23.529262 76.550263,26.802953 80.161893,34.100122 C80.165993,34.108722 80.157793,34.122752 80.161893,34.131372 C84.732216,43.731332 83.33295,58.100945 77.258873,69.033569 C71.179341,79.976009 60.983408,87.364711 47.698004,84.344291 C47.6877126,84.3337596 47.6773053,84.3233422 47.666784,84.313041 C46.538395,84.07782 45.828225,83.839121 44.763767,83.37565 C44.2470785,83.1457339 43.6572615,83.1457339 43.140573,83.37565 C42.076107,83.839124 41.365944,84.07782 40.237552,84.313041 C40.2270307,84.3233422 40.2166234,84.3337596 40.206332,84.344291 C26.920931,87.364707 16.725004,79.976005 10.645468,69.033565 C4.571385,58.100941 3.1721279,43.731328 7.742447,34.131368 C7.746547,34.122768 7.738347,34.108728 7.742447,34.100118 C11.577253,26.352198 18.740023,23.110493 26.003385,23.007656 C26.7171224,22.9964929 27.3706933,22.6050241 27.7179041,21.9807121 C28.0651148,21.3564001 28.0532157,20.5940929 27.6866891,19.9809441 C27.3201624,19.3677953 26.6546924,18.9969568 25.940955,19.00812 C17.471574,19.128036 8.67744,23.180237 4.15269,32.350325 C4.14217202,32.3606263 4.13176805,32.3710436 4.12148,32.381575 C-1.2435482,43.614345 0.4920889,58.988546 7.149362,70.970844 C13.802018,82.944834 25.938904,91.638233 41.049154,88.218841 L41.049154,88.250091 C42.14227,88.022224 43.036417,87.676662 43.9521753,87.312699 C44.867941,87.676663 45.762085,88.022224 46.855196,88.250091 L46.855196,88.218841 C61.965446,91.638229 74.102338,82.94483 80.754989,70.97084 C87.412252,58.988542 89.147897,43.614341 83.782866,32.381571 C83.7725746,32.3710396 83.7621673,32.3606222 83.751646,32.350321 C79.495863,23.725292 71.49846,19.607776 63.52415,19.070617 C62.78771,19.021007 62.041494,18.998637 61.307865,19.008127 C61.338175,18.995457 61.371215,18.989667 61.401515,18.976877 C68.157242,16.124826 72.938864,11.012249 73.887626,5.447198 C74.0238912,4.67271692 73.6940882,3.89018285 73.044814,3.4474313 C70.688769,1.8723376 67.719381,1.0465168 64.523039,0.9789679 C64.123496,0.96977573 63.712364,0.9634029 63.305643,0.9789679 Z M63.461719,5.040996 C63.793345,5.030536 64.107491,5.033796 64.429393,5.040996 C66.387503,5.084756 68.032186,5.530671 69.455053,6.165866 C68.251384,9.501461 64.892966,13.156922 59.840747,15.289806 C54.768169,17.431261 49.714416,17.318944 46.418177,15.852241 C47.626224,12.517794 51.011486,8.829938 56.063698,6.697054 C58.585039,5.632627 61.14034,5.114227 63.461719,5.040996 L63.461719,5.040996 Z M45.575365,19.976762 C47.306268,20.627482 49.23433,20.98953 51.256545,21.039138 C49.323449,21.826317 47.499086,22.809222 45.856302,24.007544 C45.792092,22.740233 45.704411,21.390729 45.575365,19.976762 Z" id="Shape"></path>
        </g>
    </g>
</svg>