<?xml version="1.0" encoding="UTF-8"?>
<svg width="150px" height="150px" viewBox="0 0 150 150" version="1.1" xmlns="http://www.w3.org/2000/svg" xmlns:xlink="http://www.w3.org/1999/xlink">
    <!-- Generator: Sketch 63.1 (92452) - https://sketch.com -->
    <title>apple</title>
    <desc>Created with Sketch.</desc>
    <g id="Page-1" stroke="none" stroke-width="1" fill="none" fill-rule="evenodd">
        <g id="apple">
            <g id="Group">
                <path d="M95.305643,31.9789679 C92.458596,32.0879205 89.458568,32.793456 86.502934,34.0412285 C82.144196,35.8813504 78.614367,38.678979 76.389184,41.915314 C76.229637,41.041824 76.057827,40.232012 75.88974,39.54059 C75.6773032,38.5854335 74.8056165,37.924407 73.829531,37.978271 C73.2336753,38.0150978 72.685489,38.31671 72.3350751,38.8005212 C71.9846611,39.2843323 71.8687371,39.8996469 72.019045,40.477981 C72.755535,43.507505 73.577204,50.140107 73.860747,54.882558 C71.696906,53.254967 69.243887,51.92279 66.556371,51.101747 C65.8620045,50.8384367 65.0790351,50.9822953 64.5233503,51.4752833 C63.9676656,51.9682713 63.7309335,52.7290633 63.9086633,53.4507193 C64.0863931,54.1723753 64.6492655,54.7358478 65.370191,54.913805 C68.92099,55.998583 72.233697,58.058579 74.485052,60.506905 C74.8632363,60.9164048 75.3950525,61.149248 75.9521753,61.149248 C76.5092875,61.149248 77.0411037,60.9164048 77.419288,60.506905 C81.401736,56.176041 88.41982,53.610521 95.243212,54.070153 C102.058866,54.529262 108.550263,57.802953 112.161893,65.100122 C112.165993,65.108722 112.157793,65.122752 112.161893,65.131372 C116.732216,74.731332 115.33295,89.100945 109.258873,100.033569 C103.179341,110.976009 92.983408,118.364711 79.698004,115.344291 C79.6877126,115.33376 79.6773053,115.323342 79.666784,115.313041 C78.538395,115.07782 77.828225,114.839121 76.763767,114.37565 C76.2470785,114.145734 75.6572615,114.145734 75.140573,114.37565 C74.076107,114.839124 73.365944,115.07782 72.237552,115.313041 C72.2270307,115.323342 72.2166234,115.33376 72.206332,115.344291 C58.920931,118.364707 48.725004,110.976005 42.645468,100.033565 C36.571385,89.100941 35.1721279,74.731328 39.742447,65.131368 C39.746547,65.122768 39.738347,65.108728 39.742447,65.100118 C43.577253,57.352198 50.740023,54.110493 58.003385,54.007656 C58.7171224,53.9964929 59.3706933,53.6050241 59.7179041,52.9807121 C60.0651148,52.3564001 60.0532157,51.5940929 59.6866891,50.9809441 C59.3201624,50.3677953 58.6546924,49.9969568 57.940955,50.00812 C49.471574,50.128036 40.67744,54.180237 36.15269,63.350325 C36.142172,63.3606263 36.131768,63.3710436 36.12148,63.381575 C30.7564518,74.614345 32.4920889,89.988546 39.149362,101.970844 C45.802018,113.944834 57.938904,122.638233 73.049154,119.218841 L73.049154,119.250091 C74.14227,119.022224 75.036417,118.676662 75.9521753,118.312699 C76.867941,118.676663 77.762085,119.022224 78.855196,119.250091 L78.855196,119.218841 C93.965446,122.638229 106.102338,113.94483 112.754989,101.97084 C119.412252,89.988542 121.147897,74.614341 115.782866,63.381571 C115.772575,63.3710396 115.762167,63.3606222 115.751646,63.350321 C111.495863,54.725292 103.49846,50.607776 95.52415,50.070617 C94.78771,50.021007 94.041494,49.998637 93.307865,50.008127 C93.338175,49.995457 93.371215,49.989667 93.401515,49.976877 C100.157242,47.124826 104.938864,42.012249 105.887626,36.447198 C106.023891,35.6727169 105.694088,34.8901829 105.044814,34.4474313 C102.688769,32.8723376 99.719381,32.0465168 96.523039,31.9789679 C96.123496,31.9695349 95.712364,31.9634029 95.305643,31.9789679 Z M95.461719,36.040996 C95.793345,36.030536 96.107491,36.033796 96.429393,36.040996 C98.387503,36.084756 100.032186,36.530671 101.455053,37.165866 C100.251384,40.501461 96.892966,44.156922 91.840747,46.289806 C86.768169,48.431261 81.714416,48.318944 78.418177,46.852241 C79.626224,43.517794 83.011486,39.829938 88.063698,37.697054 C90.585039,36.632627 93.14034,36.114227 95.461719,36.040996 L95.461719,36.040996 Z M77.575365,50.976762 C79.306268,51.627482 81.23433,51.98953 83.256545,52.039138 C81.323449,52.826317 79.499086,53.809222 77.856302,55.007544 C77.792092,53.740233 77.704411,52.390729 77.575365,50.976762 Z" id="Shape" fill="#404040" fill-rule="nonzero"></path>
                <circle id="Oval" stroke="#404040" stroke-width="3" cx="75" cy="75" r="73.5"></circle>
            </g>
        </g>
    </g>
</svg>