<?xml version="1.0" encoding="UTF-8"?>
<svg width="35px" height="42px" viewBox="0 0 35 42" version="1.1" xmlns="http://www.w3.org/2000/svg" xmlns:xlink="http://www.w3.org/1999/xlink">
    <!-- Generator: Sketch 63.1 (92452) - https://sketch.com -->
    <title>noun_vegan_1072405</title>
    <desc>Created with Sketch.</desc>
    <g id="Page-1" stroke="none" stroke-width="1" fill="none" fill-rule="evenodd">
        <g id="noun_vegan_1072405" transform="translate(18.000000, 21.500000) scale(1, -1) rotate(-141.000000) translate(-18.000000, -21.500000) translate(8.000000, -4.000000)" fill="#164C1A" fill-rule="nonzero">
            <g id="Group">
                <path d="M9.536,11.875 C4.93,11.937 0.775,12.818 0.348,22.155 C0.329,22.229 0.304,22.301 0.304,22.382 C0.306,22.428 0.325,22.467 0.333,22.511 C0.312,23.1 0.304,23.719 0.312,24.375 C0.444,34.094 6.642,50.958 10.065,50.9130899 C13.488,50.866 19.225,33.839 19.094,24.121 C18.939,12.694 14.484,11.807 9.536,11.875 Z M10.04,48.968 C8.717,47.973 5.217,40.72 3.371,32.922 L9.821,32.834 C10.341,32.828 10.756,32.401 10.748,31.883 C10.741,31.363 10.314,30.948 9.796,30.955 L2.962,31.048 C2.765,30.054 2.6,29.059 2.473,28.073 C2.539,28.087 2.602,28.111 2.672,28.111 L9.756,28.013 C10.276,28.007 10.69,27.58 10.684,27.062 C10.676,26.542 10.25,26.126 9.731,26.134 L2.648,26.23 C2.52,26.232 2.398,26.26 2.288,26.308 C2.235,25.646 2.204,24.991 2.194,24.349 C2.189,23.984 2.19,23.636 2.194,23.295 L9.691,23.193 C10.21,23.186 10.626,22.76 10.618,22.241 C10.611,21.721 10.184,21.306 9.666,21.314 L2.27,21.415 C2.813,13.852 6.1,13.802 9.562,13.754 C13.424,13.702 17.073,13.652 17.215,24.145 C17.354,34.307 11.814,47.557 10.04,48.968 Z" id="Shape"></path>
                <path d="M5.641,10.588 C6.161,10.581 6.576,10.154 6.569,9.635 L6.485,3.442 C6.477,2.923 6.051,2.508 5.532,2.515 C5.012,2.522 4.597,2.949 4.604,3.468 L4.688,9.66 C4.695,10.18 5.122,10.595 5.641,10.588 Z" id="Path"></path>
                <path d="M13.396,10.482 C13.915,10.475 14.33,10.048 14.323,9.53 L14.239,3.337 C14.232,2.817 13.804,2.402 13.286,2.41 C12.767,2.417 12.351,2.844 12.359,3.362 L12.443,9.555 C12.45,10.074 12.877,10.49 13.396,10.482 Z" id="Path"></path>
                <path d="M9.52,10.6350875 C10.04,10.628 10.455,10.201 10.448,9.682 L10.331,1.046 C10.323,0.526 9.897,0.112 9.378,0.118912526 C8.859,0.126 8.443,0.553 8.45,1.072 L8.567,9.708 C8.574,10.228 9,10.642 9.52,10.6350875 Z" id="Path"></path>
            </g>
        </g>
    </g>
</svg>