<?xml version="1.0" encoding="UTF-8"?>
<svg width="150px" height="150px" viewBox="0 0 150 150" version="1.1" xmlns="http://www.w3.org/2000/svg" xmlns:xlink="http://www.w3.org/1999/xlink">
    <!-- Generator: Sketch 63.1 (92452) - https://sketch.com -->
    <title>Group</title>
    <desc>Created with Sketch.</desc>
    <g id="Page-1" stroke="none" stroke-width="1" fill="none" fill-rule="evenodd">
        <g id="Group">
            <g id="wine" transform="translate(41.000000, 31.000000)" fill="#164C1A" fill-rule="nonzero">
                <path d="M69,10.6805285 C69,7.71172279 68.6664942,4.73442404 68.0060588,1.83356307 C67.761801,0.760603105 66.8120141,0 65.7156725,0 L3.28432747,0 C2.18892535,0 1.23819897,0.761546781 0.993941209,1.83356307 C0.334445246,4.73442404 0,7.71172279 0,10.6805285 C0,30.2750233 14.2204991,46.3562113 32.1508979,47.6594283 L32.1508979,75.7281364 C31.4228219,80.0445118 20.979863,82.0337815 15.9359402,82.3282085 C14.1444034,82.376336 12.7014037,83.8541331 12.7014037,85.6641042 C12.7014037,87.5033294 14.1913761,89 16.0233093,89 L52.9757512,89 C54.8076845,89 56.2976568,87.5033294 56.2976568,85.6641042 C56.2976568,83.8522457 54.8537176,82.3744486 53.0612414,82.3282085 C48.0191975,82.0384999 37.5799965,80.0558359 36.8481626,75.7281364 L36.8481626,47.6594283 C54.7795009,46.3562113 69,30.2750233 69,10.6805285 Z M5.20832709,4.71838154 L63.7926124,4.71838154 C64.1308154,6.68877767 64.3027353,8.68654042 64.3027353,10.6805285 C64.3027353,15.0318199 63.5023214,19.183052 62.0612006,22.9756871 C59.0915899,23.6211617 51.1099977,24.63467 37.3808324,21.4252269 C22.8756791,18.0317669 12.0268765,21.4988337 7.19902787,23.6334295 C5.59444225,19.6652706 4.69820415,15.2856688 4.69820415,10.6795848 C4.69820415,8.68654042 4.87012404,6.68877767 5.20832709,4.71838154 Z M9.28179504,27.8894096 C13.5628821,26.0577339 23.3660735,22.9936169 36.3164323,26.0209305 C47.2967582,28.5886738 54.9354501,28.6198151 59.5744687,28.1347655 C54.2684385,37.0883663 45.014827,43.036358 34.5004697,43.036358 C23.8902882,43.036358 14.5633995,36.9798435 9.28179504,27.8894096 Z" id="Shape"></path>
            </g>
            <circle id="Oval" stroke="#164C1A" stroke-width="3" cx="75" cy="75" r="73.5"></circle>
        </g>
    </g>
</svg>