<?xml version="1.0" encoding="UTF-8"?>
<svg width="53px" height="30px" viewBox="0 0 53 30" version="1.1" xmlns="http://www.w3.org/2000/svg" xmlns:xlink="http://www.w3.org/1999/xlink">
    <!-- Generator: Sketch 63.1 (92452) - https://sketch.com -->
    <title>noun_vegan_990477</title>
    <desc>Created with Sketch.</desc>
    <g id="Page-1" stroke="none" stroke-width="1" fill="none" fill-rule="evenodd">
        <g id="noun_vegan_990477" transform="translate(29.000000, 13.000000) rotate(-16.000000) translate(-29.000000, -13.000000) translate(3.000000, -5.000000)" fill="#164C1A" fill-rule="nonzero">
            <path d="M50.944,12.511 C50.806,12.454 47.531,11.118 43.176,11.118 C39.463,11.118 36.123,12.077 33.249,13.97 C31.225,15.303 29.841,17.344 29.353,19.718 C28.909,21.872 29.259,24.063 30.322,25.963 C29.405,27.015 28.554,28.212 27.89,29.573 C27.515,28.224 26.92,26.7 26.003,25.131 C29.669,20.454 29.601,13.672 25.522,9.07 C18.665,1.335 8.471,0.5 4.407,0.5 C2.944,0.5 2.049,0.6 2.011,0.604 C1.598,0.651 1.258,0.948 1.156,1.351 C1.01,1.924 -2.32,15.508 6.736,25.724 C9.117,28.41 12.542,29.95 16.133,29.95 C19.2,29.95 22.156,28.828 24.454,26.791 C24.511,26.74 24.56,26.684 24.616,26.632 C26.801,30.651 26.546,34.142 26.522,34.402 C26.522,34.404 26.522,34.405 26.521,34.407 C26.47,34.956 26.874,35.444 27.422,35.496 C27.454,35.499 27.486,35.5 27.518,35.5 C28.028,35.5 28.462,35.113 28.512,34.596 C28.512,34.596 28.512,34.595 28.513,34.594 C28.772,31.829 30.004,29.536 31.517,27.692 C33.67,30.271 36.067,30.855 37.79,30.855 C40.326,30.855 42.436,29.646 43.227,29.126 C51.165,23.899 51.547,13.888 51.5604218,13.464 C51.572,13.049 51.327,12.67 50.944,12.511 Z M16.195,16.448 C15.697,16.206 15.099,16.413 14.858,16.91 C14.617,17.407 14.823,18.005 15.32,18.247 C19.296,20.182 21.866,22.564 23.531,24.899 C23.397,25.031 23.271,25.167 23.129,25.293 C21.196,27.006 18.712,27.949 16.134,27.949 C13.114,27.949 10.235,26.654 8.233,24.397 C1.001,16.237 2.423,5.365 2.951,2.538 C3.316,2.518 3.81,2.5 4.408,2.5 C8.202,2.5 17.709,3.27 24.027,10.397 C27.3,14.091 27.496,19.454 24.826,23.354 C22.991,20.89 20.266,18.429 16.195,16.448 Z M42.128,27.455 C41.489,27.876 39.787,28.854 37.791,28.854 C35.915,28.854 34.268,27.96 32.881,26.199 C35.605,23.556 38.591,22.214 38.644,22.19 C39.149,21.968 39.379,21.378 39.159,20.873 C38.937,20.369 38.354,20.137 37.843,20.357 C37.615,20.456 34.643,21.792 31.794,24.443 C31.185,23.095 31.008,21.597 31.312,20.12 C31.694,18.27 32.772,16.679 34.35,15.64 C36.892,13.966 39.862,13.118 43.177,13.118 C46.022,13.118 48.394,13.759 49.504,14.119 C49.26,16.399 48.038,23.564 42.128,27.455 Z" id="Shape"></path>
        </g>
    </g>
</svg>