<?xml version="1.0" encoding="UTF-8"?>
<svg width="550px" height="379px" viewBox="0 0 550 379" version="1.1" xmlns="http://www.w3.org/2000/svg" xmlns:xlink="http://www.w3.org/1999/xlink">
    <!-- Generator: Sketch 63.1 (92452) - https://sketch.com -->
    <title>logo</title>
    <desc>Created with Sketch.</desc>
    <g id="Page-1" stroke="none" stroke-width="1" fill="none" fill-rule="evenodd">
        <g id="logo" transform="translate(-39.000000, -209.000000)" fill-rule="nonzero">
            <g id="noun_Food_3169693" transform="translate(305.319109, 306.376937) rotate(-34.000000) translate(-305.319109, -306.376937) translate(87.319109, 84.876937)">
                <g id="Group">
                    <path d="M268.227,301.632 C290.618,293.768 308.172,291.303 314.296,277.73 C315.786,274.426 315.899,270.74 314.615,267.349 C313.33,263.954 310.799,261.263 307.487,259.769 C305.398,258.827 303.546,258.369 301.823,258.369 C298.497,258.369 295.084,260.044 290.043,264.148 C288.573,265.343 286.557,265.606 284.829,264.829 C283.103,264.05 281.965,262.363 281.889,260.471 C281.508,250.912 279.579,247.18 273.629,244.495 C266.72,241.38 258.719,244.542 255.676,251.286 C250.832,262.023 255.868,273.385 262.84,289.11 C264.622,293.127 266.448,297.246 268.227,301.632 Z" id="Path" fill="#FF7E43"></path>
                    <path d="M30.5772099,105.851559 C37.0382099,104.575559 43.2212099,103.572559 49.2532099,102.618559 C49.5252099,96.3355593 51.1172099,90.3675593 54.7942099,84.6685593 C59.5142099,77.3565593 67.5352099,72.9905593 76.2522099,72.9905593 C81.1552099,72.9905593 85.9312099,74.4005593 90.0632099,77.0675593 C94.3622099,79.8425593 97.1932099,82.9765593 98.9842099,86.4755593 C100.78221,84.7435593 102.36421,82.8265593 103.74721,80.6845593 C110.09221,70.8515593 107.40121,57.5715593 97.3462099,51.0825593 C88.8162099,45.5765593 82.0952099,46.1665593 69.6842099,53.5055593 C68.0552099,54.4695593 66.0192099,54.4305593 64.4282099,53.4025593 C62.8372099,52.3755593 61.9632099,50.5375593 62.1692099,48.6555593 C63.7442099,34.3235593 61.5122099,27.9555593 52.9832099,22.4515593 C43.0692099,16.0535593 29.7972099,18.9135593 23.3992099,28.8275593 C13.8072099,43.6895593 18.8382099,62.0155593 25.2092099,85.2175593 C27.0202099,91.8225593 28.8842099,98.6115593 30.5772099,105.851559 Z" id="Path" fill="#164C1A" transform="translate(62.611304, 62.444965) rotate(-41.000000) translate(-62.611304, -62.444965) "></path>
                    <path d="M174.632496,303.590025 C173.344496,303.590025 171.849496,303.709025 170.063496,303.953025 C168.187496,304.213025 166.326496,303.385025 165.257496,301.820025 C164.188496,300.256025 164.095496,298.223025 165.015496,296.568025 C168.945496,289.504025 168.519496,286.718025 166.078496,283.147025 C164.222496,280.431025 161.144496,278.810025 157.845496,278.810025 C155.843496,278.810025 153.906496,279.411025 152.244496,280.545025 C144.773496,285.651025 143.498496,295.393025 141.733496,308.876025 C141.310496,312.106025 140.877496,315.412025 140.331496,318.854025 C158.299496,322.764025 171.056496,328.044025 180.361496,321.683025 C184.891496,318.586025 186.054496,312.374025 182.953496,307.835025 C180.810496,304.702025 178.632496,303.590025 174.632496,303.590025 Z" id="Path" fill="#FF7E43" transform="translate(162.511103, 301.727911) rotate(-73.000000) translate(-162.511103, -301.727911) "></path>
                    <path d="M120.670635,73.4767341 C119.079635,72.4497341 118.204635,70.6117341 118.411635,68.7297341 C118.807635,65.1287341 118.887635,62.2397341 118.595635,59.8227341 C118.561635,59.6557341 118.546635,59.4887341 118.530635,59.3207341 C117.868635,54.8187341 115.798635,52.0237341 111.779635,49.4297341 C109.266635,47.8077341 106.365635,46.9507341 103.390635,46.9507341 C98.0856353,46.9507341 93.2046353,49.6047341 90.3356353,54.0517341 C87.1236353,59.0297341 86.0836353,64.4497341 86.3656353,70.5697341 C86.8346353,78.9437341 89.3206353,87.6407341 91.8796353,96.9607341 C93.2046353,101.784734 94.5636353,106.734734 95.8156353,111.988734 C101.129635,110.963734 106.210635,110.162734 111.162635,109.382734 C130.057635,106.403734 143.709635,104.251734 150.887635,93.1307341 C155.524635,85.9447341 153.442635,76.3197341 146.245635,71.6747341 C143.430635,69.8577341 140.933635,69.0107341 138.390635,69.0107341 C135.115635,69.0107341 131.271635,70.4207341 125.927635,73.5807341 C124.296635,74.5427341 122.260635,74.5037341 120.670635,73.4767341 Z" id="Path" fill="#164C1A" transform="translate(119.839796, 79.469734) rotate(-51.000000) translate(-119.839796, -79.469734) "></path>
                    <path d="M220.5,173 C237.042,173 250.5,159.542 250.5,143 C250.5,126.458 237.042,113 220.5,113 C203.958,113 190.5,126.458 190.5,143 C190.5,159.542 203.958,173 220.5,173 Z" id="Path" fill="#164C1A"></path>
                    <path d="M60.501,443 L380.501,443 C409.144,443 432.742,420.994 435.275,393 L5.726,393 C8.259,420.994 31.858,443 60.501,443 Z" id="Path" fill="#164C1A"></path>
                    <path d="M15.564,383 L55.599,383 C56.877,346.452 71.924,306.587 93.084,284.538 C94.996,282.545 98.161,282.479 100.153,284.393 C102.146,286.305 102.211,289.47 100.299,291.462 C80.767,311.815 66.86,348.84 65.603,383 L425.436,383 C422.772,272.264 331.865,183 220.5,183 C109.134,183 18.229,272.264 15.564,383 Z M246.561,247.173 C250.366,238.739 258.805,233.29 268.062,233.29 C271.413,233.29 274.668,233.993 277.742,235.379 C285.964,239.088 289.41,244.935 290.872,251.423 C294.144,249.625 297.783,248.368 301.823,248.368 C304.993,248.368 308.19,249.115 311.598,250.653 C317.344,253.245 321.736,257.916 323.967,263.806 C326.197,269.697 326,276.102 323.41,281.841 C314.698,301.152 291.868,303.318 267.121,312.676 C264.54,313.653 261.651,312.35 260.676,309.768 C258.447,303.872 256.032,298.427 253.697,293.162 C246.283,276.434 239.879,261.987 246.561,247.173 Z M196.997806,287.164235 C198.483286,292.574626 198.214231,298.083141 196.176143,304.00525 L196.175492,304.007141 C193.957721,310.448013 189.825193,316.847232 185.448276,323.624482 C182.935616,327.515424 180.33754,331.537713 177.837003,335.930969 C177.181136,337.083215 176.09378,337.928245 174.814912,338.278996 C173.536044,338.629747 172.170295,338.458788 171.018049,337.802921 C166.632032,335.305934 162.352126,333.176519 158.212264,331.116478 C144.812402,324.447579 133.239993,318.688191 129.660004,305.649283 C128.592471,301.758767 128.720821,297.690932 130.030908,293.886166 C132.18096,287.641961 137.260697,282.871881 143.619539,281.125999 C150.473696,279.243958 155.607922,280.781253 159.850159,283.748024 C162.354373,278.244475 166.412817,274.86781 172.45741,273.208326 C183.07744,270.295155 194.084837,276.555908 196.997806,287.164235 Z" id="Shape" fill="#164C1A"></path>
                </g>
            </g>
        </g>
    </g>
</svg>