<?xml version="1.0" encoding="UTF-8"?>
<svg width="150px" height="150px" viewBox="0 0 150 150" version="1.1" xmlns="http://www.w3.org/2000/svg" xmlns:xlink="http://www.w3.org/1999/xlink">
    <!-- Generator: Sketch 63.1 (92452) - https://sketch.com -->
    <title>Group</title>
    <desc>Created with Sketch.</desc>
    <g id="Page-1" stroke="none" stroke-width="1" fill="none" fill-rule="evenodd">
        <g id="Group">
            <circle id="Oval" stroke="#FFA743" stroke-width="3" cx="75" cy="75" r="73.5"></circle>
            <g id="milk" transform="translate(39.000000, 28.000000)" fill-rule="nonzero">
                <path d="M18.4,11.5 C18.3,11.6 18.3,11.6 18.2,11.7 L18.2,11.7 L18.4,11.5 Z" id="Path" fill="#FFFFFF"></path>
                <path d="M18.2,11.7 L18.2,11.7 C18.3,11.7 18.3,11.6 18.4,11.5 L18.2,11.7 Z" id="Path" fill="#FFFFFF"></path>
                <path d="M74.8,29.6 L58.3,12.2 L58.3,2.4 C58.3,1.5 57.6,0.8 56.7,0.8 L19.8,0.8 C18.9,0.8 18.2,1.5 18.2,2.4 L18.2,11.7 L18.4,11.5 C18.3,11.6 18.3,11.6 18.2,11.7 L18.2,11.7 L1.2,29.7 C0.9,30 0.8,30.4 0.8,30.8 L0.8,91.7 C0.8,92.6 1.5,93.3 2.4,93.3 L73.7,93.3 C74.6,93.3 75.3,92.6 75.3,91.7 L75.3,30.8 C75.2,30.3 75.1,29.9 74.8,29.6 Z M21.4,4 L55.1,4 L55.1,11 L21.4,11 L21.4,4 Z M36.2,90 L4,90 L4,31.4 L19.6,14.9 L36.2,31.4 L36.2,90 Z M23.4,14.2 L55.7,14.2 L69.8,29.1 L38.5,29.1 L23.4,14.2 Z M72,90 L39.4,90 L39.4,79 L72,65.7 L72,90 Z M72,62.2 L39.4,75.5 L39.4,60.4 L72,47.1 L72,62.2 Z M72,43.6 L39.4,56.9 L39.4,32.4 L72,32.4 L72,43.6 Z" id="Shape" fill="#FFA743"></path>
            </g>
        </g>
    </g>
</svg>