<?xml version="1.0" encoding="UTF-8"?>
<svg width="25px" height="25px" viewBox="0 0 25 25" version="1.1" xmlns="http://www.w3.org/2000/svg" xmlns:xlink="http://www.w3.org/1999/xlink">
    <!-- Generator: Sketch 63.1 (92452) - https://sketch.com -->
    <title>noun_Search_3184147</title>
    <desc>Created with Sketch.</desc>
    <g id="Page-1" stroke="none" stroke-width="1" fill="none" fill-rule="evenodd">
        <g id="noun_Search_3184147" fill="#FFFFFF" fill-rule="nonzero">
            <path d="M24.14,22.73 L17.74,16.33 C21.0963386,12.2040421 20.6357454,6.17276238 16.6918044,2.60430798 C12.7478634,-0.964146415 6.7007153,-0.821032343 2.93,2.93 C-0.821032343,6.7007153 -0.964146415,12.7478634 2.60430798,16.6918044 C6.17276238,20.6357454 12.2040421,21.0963386 16.33,17.74 L22.73,24.14 C23.1267603,24.4797768 23.7181942,24.4569323 24.0875632,24.0875632 C24.4569323,23.7181942 24.4797768,23.1267603 24.14,22.73 L24.14,22.73 Z M4.34,15.66 C2.05092876,13.3724287 1.3655215,9.93107473 2.60346217,6.94103584 C3.84140283,3.95099695 6.75882485,2.00129211 9.995,2.00129211 C13.2311752,2.00129211 16.1485972,3.95099695 17.3865378,6.94103584 C18.6244785,9.93107473 17.9390712,13.3724287 15.65,15.66 C14.1564467,17.1715159 12.1199427,18.022203 9.995,18.022203 C7.87005727,18.022203 5.83355328,17.1715159 4.34,15.66 Z" id="Shape"></path>
        </g>
    </g>
</svg>