<?xml version="1.0" encoding="UTF-8"?>
<svg width="150px" height="150px" viewBox="0 0 150 150" version="1.1" xmlns="http://www.w3.org/2000/svg" xmlns:xlink="http://www.w3.org/1999/xlink">
    <!-- Generator: Sketch 63.1 (92452) - https://sketch.com -->
    <title>Group</title>
    <desc>Created with Sketch.</desc>
    <g id="Page-1" stroke="none" stroke-width="1" fill="none" fill-rule="evenodd">
        <g id="Group">
            <g id="wine" transform="translate(38.000000, 27.000000)" fill="#404040" fill-rule="nonzero">
                <path d="M73.723,12.162 C73.723,9.016 73.368,5.861 72.665,2.787 C72.405,1.65 71.394,0.844 70.227,0.844 L3.772,0.844 C2.606,0.844 1.594,1.651 1.334,2.787 C0.632,5.861 0.276,9.016 0.276,12.162 C0.276,32.926 15.413,49.967 34.499,51.348 L34.499,81.092 C33.724,85.666 22.608,87.774 17.239,88.086 C15.332,88.137 13.796,89.703 13.796,91.621 C13.796,93.57 15.382,95.156 17.332,95.156 L56.666,95.156 C58.616,95.156 60.202,93.57 60.202,91.621 C60.202,89.701 58.665,88.135 56.757,88.086 C51.39,87.779 40.278,85.678 39.499,81.092 L39.499,51.348 C58.586,49.967 73.723,32.926 73.723,12.162 Z M5.82,5.844 L68.18,5.844 C68.54,7.932 68.723,10.049 68.723,12.162 C68.723,16.773 67.871,21.172 66.337,25.191 C63.176,25.875 54.68,26.949 40.066,23.548 C24.626,19.952 13.078,23.626 7.939,25.888 C6.231,21.683 5.277,17.042 5.277,12.161 C5.277,10.049 5.46,7.932 5.82,5.844 Z M10.156,30.398 C14.713,28.457 25.148,25.21 38.933,28.418 C50.621,31.139 58.752,31.172 63.69,30.658 C58.042,40.146 48.192,46.449 37,46.449 C25.706,46.449 15.778,40.031 10.156,30.398 Z" id="Shape"></path>
            </g>
            <circle id="Oval" stroke="#404040" stroke-width="3" cx="75" cy="75" r="73.5"></circle>
        </g>
    </g>
</svg>