<?xml version="1.0" standalone="no"?>
<!DOCTYPE svg PUBLIC "-//W3C//DTD SVG 20010904//EN"
 "http://www.w3.org/TR/2001/REC-SVG-20010904/DTD/svg10.dtd">
<svg version="1.0" xmlns="http://www.w3.org/2000/svg"
 width="802.000000pt" height="802.000000pt" viewBox="0 0 802.000000 802.000000"
 preserveAspectRatio="xMidYMid meet">
<metadata>
Created by potrace 1.11, written by Peter Selinger 2001-2013
</metadata>
<g transform="translate(0.000000,802.000000) scale(0.100000,-0.100000)"
fill="#000000" stroke="none">
<path d="M1583 7759 c-134 -33 -241 -103 -325 -209 -37 -47 -84 -130 -80 -142
1 -5 -2 -8 -6 -8 -5 0 -9 -6 -10 -12 0 -7 -7 -38 -16 -68 -11 -38 -14 -87 -12
-160 5 -174 63 -302 191 -424 42 -40 149 -106 187 -115 4 -1 27 -9 50 -17 59
-22 237 -26 308 -7 228 59 397 236 445 466 15 68 12 219 -5 262 -6 17 -11 30
-10 30 2 0 -21 59 -38 95 -57 124 -199 248 -337 295 -76 26 -83 27 -180 30
-63 2 -113 -3 -162 -16z"/>
<path d="M4058 6995 c-2 -2 -73 -5 -158 -8 -85 -4 -166 -8 -180 -11 -14 -2
-54 -7 -90 -11 -90 -9 -121 -13 -150 -18 -14 -3 -43 -8 -65 -12 -35 -6 -215
-41 -255 -50 -8 -2 -15 -4 -15 -5 0 -1 -13 -4 -30 -6 -16 -3 -37 -7 -45 -11
-8 -3 -19 -7 -25 -8 -77 -18 -356 -108 -430 -140 -16 -7 -52 -22 -80 -33 -27
-11 -81 -35 -120 -53 -38 -18 -72 -33 -75 -34 -61 -16 -536 -296 -625 -368 -5
-4 -48 -37 -95 -73 -47 -36 -101 -77 -120 -92 -19 -15 -37 -30 -40 -33 -3 -3
-27 -25 -55 -49 -77 -65 -262 -248 -340 -335 -38 -43 -77 -86 -85 -95 -8 -8
-31 -36 -50 -60 -19 -25 -37 -47 -40 -50 -11 -10 -117 -156 -173 -237 -75
-109 -201 -321 -247 -413 -20 -41 -42 -84 -48 -95 -18 -30 -80 -170 -113 -255
-16 -41 -34 -84 -39 -95 -10 -22 -98 -289 -105 -320 -3 -11 -18 -71 -34 -133
-17 -63 -33 -130 -36 -150 -3 -21 -8 -45 -11 -54 -7 -24 -14 -58 -19 -103 -3
-22 -8 -48 -11 -57 -3 -9 -7 -39 -9 -65 -2 -26 -6 -59 -9 -73 -33 -182 -39
-671 -11 -915 3 -27 8 -68 10 -90 3 -22 7 -49 9 -60 8 -39 19 -120 20 -142 1
-13 3 -23 6 -23 3 0 5 -10 6 -22 0 -13 3 -34 7 -48 3 -14 11 -47 17 -75 6 -27
13 -58 15 -68 2 -10 7 -27 10 -37 3 -10 8 -28 10 -41 18 -94 134 -443 185
-554 10 -24 81 -177 118 -257 14 -32 30 -58 34 -58 4 0 50 23 100 51 51 29
116 64 143 79 28 15 107 59 177 99 71 39 132 71 137 71 5 0 11 3 13 8 2 4 28
20 58 36 30 16 58 32 62 35 4 4 -7 36 -24 71 -18 36 -33 67 -33 70 -2 7 -23
58 -40 95 -53 118 -146 415 -172 545 -6 29 -7 35 -18 75 -5 16 -9 39 -10 50
-1 11 -5 31 -8 45 -3 14 -9 45 -12 70 -10 83 -15 115 -20 145 -23 141 -24 505
0 685 12 94 47 246 62 268 59 93 207 22 178 -85 -14 -51 -23 -91 -31 -143 -3
-19 -7 -48 -10 -65 -12 -84 -18 -195 -17 -335 0 -140 4 -206 18 -310 2 -19 7
-60 11 -90 3 -30 7 -57 9 -60 2 -3 6 -27 9 -54 4 -27 9 -53 11 -56 2 -4 7 -22
10 -41 8 -45 25 -120 32 -139 3 -8 7 -22 8 -30 8 -44 77 -260 105 -325 4 -11
18 -45 30 -75 18 -45 88 -197 95 -208 1 -1 33 15 71 36 70 40 147 83 219 122
22 12 58 32 80 44 22 12 70 39 107 59 37 20 90 50 118 67 28 16 53 30 55 30 3
0 188 102 245 135 14 8 72 40 130 72 58 31 107 60 108 65 2 4 12 8 23 8 10 0
19 3 19 8 0 4 24 18 53 32 28 14 57 30 64 36 6 6 26 17 45 24 18 8 35 16 38
19 3 3 14 11 25 17 92 51 165 90 190 102 17 9 32 18 35 21 3 4 30 19 60 35 30
16 71 38 90 49 48 27 124 69 190 103 30 16 57 32 60 35 3 3 46 27 95 54 50 27
106 57 125 68 78 44 398 221 435 242 80 44 151 83 185 102 46 26 85 48 454
252 170 94 313 171 317 171 5 0 9 3 9 8 0 4 12 13 28 19 15 7 95 50 177 96 83
46 181 100 218 120 37 21 84 47 105 59 71 40 147 81 177 96 17 8 37 21 45 28
8 7 22 14 30 16 8 2 17 6 20 9 3 3 66 39 140 80 74 40 143 78 152 84 9 5 50
28 90 49 40 21 89 49 108 60 19 12 49 28 65 36 17 8 46 24 65 36 19 11 64 37
100 56 65 36 135 75 200 111 108 61 193 107 197 107 2 0 28 15 58 34 29 19 55
33 58 30 2 -2 10 2 17 11 7 8 16 15 20 15 5 0 39 17 77 39 92 51 171 95 213
117 19 11 37 21 40 24 3 3 39 23 80 44 41 22 77 42 80 46 3 3 24 14 47 24 31
14 40 23 35 35 -3 9 -8 18 -11 21 -3 3 -15 21 -25 40 -35 64 -202 307 -245
356 -11 13 -21 26 -21 29 0 3 -8 13 -17 23 -10 10 -29 33 -43 51 -14 18 -44
53 -66 77 -23 24 -40 44 -39 44 3 0 -9 14 -116 126 -68 71 -185 181 -260 246
-138 118 -138 118 -148 118 -5 0 -11 4 -13 8 -5 12 -136 112 -147 112 -5 0
-11 4 -13 8 -4 12 -153 112 -166 112 -6 0 -12 4 -14 8 -4 11 -228 143 -228
135 0 -3 -8 1 -17 9 -10 9 -63 37 -118 63 -55 26 -111 53 -125 61 -14 7 -50
22 -80 34 -30 12 -68 28 -85 36 -116 54 -531 179 -695 210 -14 2 -45 9 -70 14
-76 16 -202 36 -293 45 -124 14 -157 16 -297 21 -80 2 -162 6 -182 8 -21 2
-39 2 -40 1z m457 -827 c108 -23 229 -111 292 -215 73 -119 89 -306 39 -453
-53 -152 -157 -299 -376 -530 -30 -31 -95 -101 -145 -155 -178 -194 -168 -185
-212 -185 -32 0 -49 8 -90 43 -58 48 -69 57 -213 167 -58 45 -113 88 -123 96
-9 7 -20 14 -23 14 -2 0 -15 9 -27 21 -12 11 -35 30 -50 42 -111 86 -277 257
-277 284 0 6 -4 13 -9 15 -7 2 -61 99 -66 118 -1 3 -4 12 -8 20 -9 23 -28 98
-26 107 1 4 0 10 -1 13 -1 3 -3 34 -5 70 -6 178 106 362 265 432 86 39 104 42
215 43 129 0 208 -30 297 -114 l37 -34 23 29 c67 89 170 156 273 177 23 5 180
1 210 -5z m-1979 -1634 c156 -46 273 -182 320 -369 19 -79 23 -279 10 -505 -5
-74 -9 -169 -11 -211 -2 -73 -13 -109 -42 -138 -17 -17 -62 -19 -438 -26 -223
-3 -294 -1 -350 11 -78 16 -185 55 -185 66 0 5 -5 8 -11 8 -13 0 -85 55 -117
90 -66 71 -102 155 -107 251 -12 218 165 416 377 421 l45 0 6 62 c3 34 10 73
15 86 5 14 11 30 12 35 5 21 67 99 106 134 100 88 247 122 370 85z"/>
<path d="M4302 5963 c-66 -23 -123 -88 -167 -193 -28 -68 -61 -95 -112 -94
-33 1 -49 7 -68 28 -14 15 -25 30 -25 34 -2 19 -91 121 -131 147 -40 27 -52
30 -124 30 -68 0 -88 -4 -135 -28 -142 -72 -185 -242 -105 -411 51 -107 143
-202 355 -369 9 -7 42 -32 75 -56 33 -25 62 -47 65 -50 3 -3 32 -26 65 -51 33
-24 68 -52 78 -62 27 -27 1 -48 192 157 55 59 119 127 142 152 53 55 166 193
159 193 -3 0 3 9 14 20 11 11 20 27 20 35 0 8 3 15 8 15 9 0 40 74 56 137 18
68 11 172 -14 227 -26 54 -59 89 -119 124 -55 32 -160 39 -229 15z"/>
<path d="M2355 4310 c-47 -21 -103 -76 -112 -111 -13 -49 -7 -111 18 -186 22
-69 -11 -137 -71 -146 -12 -2 -56 4 -98 13 -42 9 -81 15 -87 15 -114 -10 -193
-107 -182 -222 4 -45 12 -63 44 -101 41 -48 124 -97 189 -109 48 -10 311 -8
454 2 58 4 117 8 132 9 14 0 30 4 34 8 13 14 13 498 -1 568 -12 66 -40 144
-60 168 -30 38 -82 85 -104 94 -44 18 -113 17 -156 -2z"/>
<path d="M7820 4839 c-47 -26 -105 -58 -130 -72 -78 -41 -162 -88 -232 -128
-36 -22 -71 -39 -77 -39 -6 0 -11 -4 -11 -8 0 -5 -17 -16 -37 -25 -21 -9 -65
-31 -98 -51 -68 -39 -103 -59 -190 -106 -33 -18 -116 -64 -185 -103 -69 -38
-150 -83 -180 -100 -30 -16 -90 -49 -132 -73 -43 -24 -80 -44 -84 -44 -3 0
-18 -8 -32 -18 -15 -11 -61 -37 -102 -59 -41 -22 -95 -52 -120 -66 -414 -230
-683 -377 -690 -377 -6 0 -10 -4 -10 -9 0 -5 -9 -12 -19 -16 -10 -3 -84 -42
-162 -86 -79 -45 -153 -85 -164 -90 -11 -6 -29 -15 -40 -22 -11 -7 -60 -34
-110 -61 -49 -28 -93 -54 -97 -60 -4 -6 -8 -8 -8 -4 0 4 -21 -5 -47 -20 -27
-16 -55 -31 -63 -35 -8 -4 -29 -16 -47 -26 -17 -11 -67 -39 -110 -62 -113 -61
-117 -63 -123 -70 -3 -3 -25 -15 -50 -28 -25 -12 -58 -30 -75 -39 -64 -36
-163 -91 -220 -122 -33 -18 -64 -36 -70 -40 -5 -4 -48 -28 -95 -52 -47 -25
-101 -55 -120 -66 -19 -11 -60 -34 -90 -50 -30 -17 -144 -80 -254 -141 -109
-61 -200 -111 -202 -111 -3 0 -21 -11 -42 -24 -20 -12 -71 -41 -112 -63 -41
-22 -111 -61 -155 -85 -44 -25 -102 -58 -130 -73 -71 -39 -204 -112 -293 -161
-26 -15 -60 -34 -77 -44 -16 -9 -61 -34 -98 -54 -61 -33 -84 -46 -158 -88 -13
-7 -32 -19 -41 -27 -10 -8 -18 -11 -18 -6 0 4 -7 2 -16 -6 -15 -12 -60 -37
-134 -75 -19 -10 -37 -21 -40 -25 -3 -3 -27 -17 -55 -30 -27 -14 -81 -43 -120
-66 -38 -22 -104 -59 -145 -81 -41 -22 -91 -48 -110 -58 -19 -11 -37 -21 -40
-24 -3 -3 -27 -17 -55 -31 -45 -24 -198 -108 -353 -196 -31 -18 -68 -38 -82
-45 -14 -6 -37 -20 -51 -30 -14 -9 -29 -15 -33 -11 -3 3 -6 1 -6 -5 0 -7 -4
-12 -10 -12 -5 0 -31 -13 -57 -28 -26 -16 -79 -45 -116 -66 -37 -20 -82 -45
-100 -55 -18 -10 -68 -37 -112 -61 -82 -45 -177 -99 -184 -106 -13 -12 142
-182 224 -246 122 -95 247 -156 405 -199 167 -44 379 -46 545 -3 79 21 216 73
236 90 8 8 21 14 27 14 6 0 17 6 24 13 8 6 41 26 73 42 33 17 62 33 63 38 2 4
7 7 12 7 9 0 580 315 597 330 7 5 15 10 19 10 4 0 71 35 148 79 137 76 180
100 296 164 30 17 96 54 147 83 50 28 105 58 122 65 17 8 31 17 31 21 0 5 4 8
10 8 5 0 47 21 92 46 46 25 108 60 138 76 108 60 215 119 230 128 8 5 37 21
64 35 27 15 126 69 220 122 195 109 224 125 338 188 46 25 90 50 98 55 8 5 41
23 73 39 31 16 63 33 70 39 6 5 41 25 77 44 143 77 186 101 205 113 11 7 56
32 100 56 44 23 118 64 164 91 46 26 85 48 87 48 2 0 68 36 145 80 78 44 143
80 145 80 3 0 22 11 44 25 22 14 40 22 40 18 0 -5 4 -3 8 3 7 10 86 55 197
113 27 14 55 31 62 38 7 6 23 15 36 19 12 4 24 9 27 13 3 3 21 14 40 24 121
65 206 111 216 118 6 5 37 23 70 40 32 17 61 34 64 38 3 3 10 7 16 8 7 1 34
15 60 31 48 28 170 95 236 130 18 9 35 19 38 22 3 3 19 12 35 21 59 30 120 64
125 69 3 3 30 18 60 34 59 30 81 42 174 95 33 18 82 45 110 61 28 15 78 42
111 60 99 55 202 129 273 199 71 69 122 127 122 137 0 3 11 20 25 38 14 18 25
38 25 44 0 7 4 12 8 12 8 0 42 69 82 163 27 64 60 204 66 280 10 121 10 137 1
137 -5 0 -4 6 2 13 6 8 9 16 6 18 -2 3 -7 30 -11 60 -3 30 -7 61 -8 69 -11 75
-44 190 -68 232 l-13 25 -85 -48z"/>
</g>
</svg>
